<?xml version="1.0" standalone="no"?>
<!DOCTYPE svg PUBLIC "-//W3C//DTD SVG 20010904//EN"
 "http://www.w3.org/TR/2001/REC-SVG-20010904/DTD/svg10.dtd">
<svg version="1.0" xmlns="http://www.w3.org/2000/svg"
 width="1280.000000pt" height="858.000000pt" viewBox="0 0 1280.000000 858.000000"
 preserveAspectRatio="xMidYMid meet">
<metadata>
Created by potrace 1.15, written by Peter Selinger 2001-2017
</metadata>
<g transform="translate(0.000000,858.000000) scale(0.100000,-0.100000)"
fill="#000000" stroke="none">
<path d="M3750 7940 c-128 -16 -256 -83 -344 -181 -61 -67 -122 -193 -136
-279 -5 -36 -10 -237 -10 -455 0 -427 5 -476 58 -589 77 -163 240 -285 417
-312 l50 -7 -60 -12 c-33 -7 -75 -19 -93 -26 -28 -12 87 -14 790 -13 453 0
837 4 853 7 30 6 1119 8 1185 2 19 -2 78 -6 130 -10 52 -4 109 -9 125 -11 17
-3 588 -6 1270 -8 682 -2 1249 -6 1260 -10 11 -3 -8 7 -42 24 -33 17 -90 37
-125 44 l-63 13 68 13 c202 38 379 204 432 406 12 48 15 136 15 501 l0 442
-25 79 c-56 179 -194 309 -390 371 -45 14 -317 16 -2675 17 -1444 1 -2654 -2
-2690 -6z"/>
<path d="M3683 5255 c-80 -22 -120 -41 -190 -91 -112 -80 -188 -199 -218 -340
-18 -83 -21 -808 -5 -914 35 -217 221 -409 440 -454 l65 -13 -59 -13 c-32 -6
-77 -20 -100 -31 -32 -14 -34 -17 -11 -11 33 7 602 9 1090 3 171 -2 366 1 435
5 212 15 1345 11 1490 -5 97 -10 390 -14 1295 -17 644 -2 1207 -5 1253 -7 45
-1 82 -1 82 1 0 8 -111 51 -164 63 l-58 13 68 16 c90 21 146 47 221 103 82 61
155 166 188 269 l25 79 0 442 c0 492 -1 504 -66 628 -44 83 -148 186 -232 228
-130 66 91 61 -2838 60 -2249 0 -2667 -2 -2711 -14z"/>
<path d="M3665 2611 c-181 -52 -334 -208 -386 -396 -11 -39 -14 -146 -14 -500
0 -414 2 -454 19 -505 71 -208 230 -354 428 -392 l67 -12 -57 -12 c-31 -7 -72
-18 -90 -25 -28 -12 86 -14 785 -13 450 1 832 4 848 8 34 7 1186 8 1219 1 95
-20 413 -28 1276 -28 525 -1 1075 -4 1223 -7 215 -4 264 -3 250 7 -27 20 -122
53 -172 60 l-46 7 65 13 c212 42 397 222 440 426 7 37 10 199 8 508 -3 452 -3
454 -27 514 -68 170 -186 283 -354 340 l-76 25 -2673 -1 c-2499 0 -2677 -2
-2733 -18z"/>
</g>
</svg>
